<?xml version="1.0" standalone="no"?>
<!DOCTYPE svg PUBLIC "-//W3C//DTD SVG 20010904//EN"
 "http://www.w3.org/TR/2001/REC-SVG-20010904/DTD/svg10.dtd">
<svg version="1.0" xmlns="http://www.w3.org/2000/svg"
 width="164.000000pt" height="164.000000pt" viewBox="0 0 164.000000 164.000000"
 preserveAspectRatio="xMidYMid meet">
<metadata>
Created by potrace 1.14, written by Peter Selinger 2001-2017
</metadata>
<g transform="translate(0.000000,164.000000) scale(0.100000,-0.100000)"
fill="#000000" stroke="none">
<path d="M700 1619 c0 -4 -21 -8 -47 -9 -87 -4 -93 -5 -93 -13 0 -5 -4 -5 -10
-2 -5 3 -10 1 -10 -6 0 -7 -3 -10 -6 -6 -8 7 -63 -12 -87 -32 -36 -29 -100
-91 -93 -91 3 0 -5 -18 -20 -39 -14 -22 -23 -45 -19 -50 3 -6 2 -11 -3 -11 -5
0 -9 -6 -10 -12 -2 -31 -11 -75 -20 -99 -18 -46 -4 -149 20 -149 6 0 7 -8 3
-17 -7 -18 -13 -40 -14 -55 -1 -5 -5 -8 -10 -8 -6 0 -8 9 -6 20 5 26 -15 37
-30 17 -7 -9 -14 -14 -17 -11 -4 3 -5 -13 -5 -35 1 -23 -1 -41 -4 -41 -4 0 -4
-20 -2 -44 3 -24 1 -46 -5 -50 -6 -4 -7 -20 -1 -47 9 -41 9 -42 -33 -80 -24
-21 -39 -39 -34 -39 5 0 1 -8 -8 -19 -9 -10 -18 -28 -19 -40 -1 -11 -4 -21 -7
-21 -8 0 -10 -61 -2 -80 3 -8 6 -18 6 -22 1 -4 9 -16 18 -27 9 -11 15 -21 12
-23 -2 -3 10 -17 26 -33 17 -16 30 -25 30 -21 0 4 11 -5 24 -21 21 -26 29 -45
43 -115 3 -16 9 -28 14 -28 5 0 9 -11 9 -25 0 -14 5 -25 11 -25 5 0 7 -4 4
-10 -3 -5 -1 -10 6 -10 7 0 10 -3 6 -6 -7 -7 47 -62 84 -86 14 -9 44 -20 65
-24 21 -3 47 -11 56 -15 10 -5 19 -5 23 0 3 6 17 6 35 1 21 -6 32 -4 41 6 6 7
16 11 21 8 13 -8 59 16 52 28 -3 4 2 11 10 14 9 3 14 10 11 14 -3 4 2 10 10
14 8 3 15 1 15 -4 0 -14 64 -31 106 -28 22 1 53 10 69 19 l30 18 29 -40 c17
-21 38 -39 49 -39 10 0 27 -5 38 -10 14 -8 19 -7 19 2 0 8 3 9 11 1 11 -11
112 3 117 17 2 4 12 6 22 3 12 -3 22 1 26 11 3 9 10 13 15 10 5 -3 9 0 9 7 0
7 3 10 6 6 9 -8 84 84 78 95 -3 4 2 8 10 8 10 0 13 6 10 15 -4 8 -2 15 3 15 5
0 9 8 10 18 1 9 4 31 8 47 4 17 8 37 9 46 2 17 66 87 66 73 0 -4 16 9 35 30
19 21 35 44 35 52 0 7 4 15 8 18 5 3 9 25 11 50 1 35 -5 55 -29 94 -16 27 -30
55 -30 62 0 7 -3 11 -6 8 -3 -3 -16 4 -29 16 -18 17 -23 32 -24 71 -1 112 -7
181 -14 193 -5 6 -5 12 -1 12 3 0 1 7 -6 15 -7 8 -22 13 -34 11 -14 -3 -27 3
-34 14 -9 16 -8 20 8 25 11 4 20 14 21 23 3 44 1 98 -5 112 -3 8 -4 24 -2 35
2 11 1 25 -3 30 -3 6 -7 16 -8 23 -12 53 -30 88 -73 147 -22 30 -47 55 -55 55
-8 0 -15 4 -15 9 0 5 -13 14 -30 21 -16 7 -30 17 -30 22 0 5 -4 6 -10 3 -5 -3
-16 -3 -22 2 -7 4 -22 9 -33 10 -11 2 -31 6 -45 9 -14 4 -40 7 -57 7 -18 0
-33 2 -33 6 0 3 -61 6 -135 6 -74 0 -135 -3 -135 -6z"/>
</g>
</svg>
