<?xml version="1.0" standalone="no"?>
<!DOCTYPE svg PUBLIC "-//W3C//DTD SVG 20010904//EN"
 "http://www.w3.org/TR/2001/REC-SVG-20010904/DTD/svg10.dtd">
<svg version="1.0" xmlns="http://www.w3.org/2000/svg"
 width="512.000000pt" height="512.000000pt" viewBox="0 0 512.000000 512.000000"
 preserveAspectRatio="xMidYMid meet">
<metadata>
Created by potrace 1.14, written by Peter Selinger 2001-2017
</metadata>
<g transform="translate(0.000000,512.000000) scale(0.100000,-0.100000)"
fill="#000000" stroke="none">
<path d="M1177 4264 c-1 -1 -24 -4 -52 -7 -240 -28 -488 -178 -625 -378 -92
-134 -137 -251 -184 -485 -3 -10 -9 -39 -15 -64 -5 -25 -12 -56 -15 -70 -6
-32 -24 -118 -31 -150 -3 -14 -8 -38 -11 -55 -3 -16 -9 -48 -14 -70 -5 -22
-14 -69 -20 -105 -6 -36 -16 -85 -20 -110 -5 -25 -12 -62 -15 -82 -3 -21 -7
-53 -10 -70 -23 -163 -41 -311 -50 -438 -7 -84 -6 -410 0 -471 13 -113 45
-278 70 -352 93 -275 272 -442 525 -489 374 -70 682 155 942 687 26 55 54 111
61 125 11 22 20 25 74 27 143 5 312 71 418 164 l56 49 305 0 c167 0 304 -4
304 -8 0 -4 24 -26 53 -47 28 -22 54 -43 57 -46 3 -3 39 -22 80 -42 84 -40
185 -65 275 -69 67 -3 56 9 125 -138 56 -123 180 -329 202 -338 4 -2 8 -10 8
-17 0 -7 3 -15 8 -17 4 -1 32 -32 62 -67 69 -82 185 -174 264 -211 305 -144
664 -40 841 245 58 93 99 202 131 350 4 19 18 117 29 195 6 50 6 393 0 470
-19 225 -59 520 -90 670 -3 14 -12 61 -20 105 -35 199 -128 613 -153 686 -114
329 -385 558 -725 612 -151 25 -350 6 -462 -43 -11 -5 -41 -18 -67 -29 -117
-49 -257 -161 -343 -275 l-49 -66 -536 0 -535 0 -45 61 c-60 83 -162 174 -260
233 -87 53 -246 111 -331 122 -53 6 -207 13 -212 8z"/>
</g>
</svg>
